<svg width="30" height="48" viewBox="0 0 30 48" fill="none" xmlns="http://www.w3.org/2000/svg">
<path fill-rule="evenodd" clip-rule="evenodd" d="M14.5619 0.010419C14.5769 0.016552 14.5845 0.0613578 14.5845 0.144324V0.269029H14.3401C14.0952 0.269029 13.9349 0.314345 13.8794 0.399356C13.8733 0.408726 13.8632 0.41554 13.8569 0.414688C13.8208 0.409918 13.8084 0.415199 13.8182 0.431214C13.8244 0.441095 13.8143 0.449272 13.7958 0.449272C13.7774 0.449272 13.7262 0.47176 13.6821 0.499188C13.638 0.526617 13.5816 0.559326 13.5569 0.571933C13.532 0.584539 13.4956 0.604813 13.4758 0.616738C13.4559 0.628834 13.3748 0.67415 13.2954 0.717762C13.2162 0.761205 12.9891 0.887955 12.7906 0.999372C12.5923 1.11079 12.2598 1.2975 12.0516 1.4142C11.8434 1.5309 11.5107 1.71745 11.3124 1.82886C11.1141 1.94028 10.7815 2.12683 10.5734 2.24352C10.365 2.36022 10.0284 2.54899 9.82512 2.66296C9.62188 2.77693 9.29325 2.96126 9.09495 3.07251C8.89665 3.18375 8.56819 3.36792 8.36495 3.48206C8.16171 3.59603 7.8249 3.78479 7.61672 3.90149C7.40853 4.01819 7.0719 4.20712 6.86866 4.32126C6.51925 4.51752 6.2884 4.64699 5.40388 5.14309C5.19809 5.25842 4.86554 5.44497 4.66468 5.55775C4.464 5.67053 3.96296 5.95129 3.55154 6.18179C3.13994 6.41229 2.64112 6.69219 2.44282 6.80378C2.24452 6.91519 1.9118 7.10191 1.70362 7.21861C1.16391 7.52083 0.598823 7.83787 0.508871 7.88898C0.41415 7.94282 0.415172 7.94435 0.609044 8.05424C0.695418 8.10313 0.863565 8.19955 0.982478 8.26855C1.10156 8.33738 1.51929 8.57861 1.91095 8.80468C2.30261 9.03058 2.72852 9.27641 2.85748 9.35103C2.98628 9.42548 3.19514 9.5461 3.32155 9.61901C3.44813 9.69193 3.65699 9.81237 3.78578 9.88682C3.91475 9.9611 4.12361 10.0815 4.25002 10.1546C4.37643 10.2275 4.5853 10.3482 4.71426 10.4226C4.84322 10.4971 5.13522 10.6655 5.36334 10.7972C5.7809 11.0381 5.97272 11.1489 6.53509 11.4739C6.70358 11.5714 6.99166 11.7375 7.17514 11.8433C7.35845 11.9489 7.98317 12.3095 8.56325 12.6446C11.4434 14.3082 12.5468 14.9435 12.5559 14.9435C12.5613 14.9435 12.5637 14.6416 12.5611 14.2725L12.5564 13.6014L10.5643 12.4515C9.46855 11.8189 8.48301 11.2502 8.37398 11.1875C8.08266 11.0204 5.83831 9.72532 5.35431 9.44507C5.24017 9.37914 5.03335 9.25972 4.8945 9.17965C4.75566 9.09975 4.53197 8.97061 4.39722 8.89259C4.26246 8.81473 3.91288 8.61302 3.62019 8.44453C3.18321 8.19291 3.09326 8.13448 3.11694 8.11812C3.13279 8.10722 3.27964 8.02118 3.44336 7.92697C3.60691 7.83259 3.8219 7.70874 3.92105 7.6515C4.0202 7.59426 4.65702 7.22679 5.33625 6.83478C6.01549 6.44278 6.7213 6.03561 6.9046 5.92999C7.08808 5.82437 7.68844 5.47785 8.23871 5.16012C8.78898 4.84223 9.32034 4.53541 9.41949 4.47816C9.66566 4.33625 10.0231 4.12995 10.2938 3.97355C10.4178 3.90183 10.9127 3.6163 11.3935 3.33895C12.8157 2.51866 12.8778 2.48254 12.948 2.43842C12.985 2.41525 13.0189 2.39617 13.0232 2.39617C13.0276 2.39617 13.0947 2.35852 13.1722 2.31252C13.2499 2.26652 13.4433 2.15426 13.6019 2.06311C13.7607 1.97197 14.0506 1.80535 14.2464 1.69275L14.6024 1.48797V0.743317C14.6024 0.0455138 14.6005 -0.00133551 14.5709 2.73859e-05C14.5522 0.000879196 14.5484 0.00496738 14.5619 0.010419ZM15.4123 0.0591431C15.4363 0.0887861 15.5038 0.133421 15.5038 0.119792C15.5038 0.116385 15.4776 0.0942372 15.4454 0.0705569C15.4091 0.0439804 15.3965 0.0397218 15.4123 0.0591431ZM15.5038 0.252844C15.3701 0.258807 15.2583 0.26494 15.2558 0.266303C15.2532 0.267837 15.2532 0.538201 15.2558 0.867341L15.2605 1.46565L15.4859 1.59513C15.6098 1.66634 15.8369 1.79735 15.9907 1.88611C16.342 2.08918 16.8156 2.36261 17.1083 2.53144C17.2323 2.60299 17.4432 2.7248 17.5771 2.80214C17.7108 2.87949 17.9422 3.01288 18.0909 3.09874C18.2396 3.18461 18.5276 3.35071 18.7308 3.46809C18.934 3.58547 19.2789 3.78428 19.4971 3.91001C19.7152 4.03573 20.0315 4.21836 20.2002 4.31598C20.3687 4.41343 20.6283 4.56335 20.777 4.64904C20.9257 4.73473 21.1813 4.88243 21.3448 4.97716C21.5084 5.07188 21.7234 5.19624 21.8225 5.25348C21.9217 5.31072 22.3476 5.55656 22.7691 5.79966C23.1904 6.04294 23.6326 6.29814 23.7515 6.36697C23.8706 6.4358 24.187 6.61825 24.4546 6.77243C24.7224 6.92661 25.0914 7.13956 25.2749 7.2457C25.7812 7.53855 26.0472 7.69205 26.3836 7.88541C26.799 8.12408 26.7802 8.10006 26.6221 8.19172C26.5504 8.23346 26.0862 8.5011 25.5904 8.78679C25.0947 9.07232 24.5957 9.3604 24.4817 9.42684C24.3677 9.49328 23.9742 9.72055 23.6074 9.93197C23.2405 10.1434 22.8471 10.3703 22.7329 10.4364C22.619 10.5025 22.4081 10.6243 22.2643 10.7069C22.1205 10.7897 21.9096 10.9115 21.7956 10.9775C21.4738 11.1635 20.8072 11.5482 18.564 12.8421L17.2887 13.5779V14.2426C17.2887 14.6513 17.2952 14.9074 17.3057 14.9074C17.3153 14.9074 17.4187 14.8519 17.5357 14.7839C17.739 14.6656 23.1583 11.5369 23.364 11.4191C23.4813 11.3518 25.1047 10.4149 26.4017 9.66603C26.9073 9.37403 27.4346 9.06942 27.5734 8.98935C27.7123 8.90928 27.9273 8.78509 28.0511 8.71337C28.1752 8.64164 28.4551 8.48014 28.6731 8.35424C28.8912 8.22852 29.1488 8.07996 29.2455 8.02408C29.3421 7.9682 29.4212 7.91829 29.421 7.91318C29.4208 7.90789 29.1714 7.76428 28.8667 7.59392C28.5619 7.42356 28.1259 7.17943 27.898 7.05131C26.8438 6.45965 25.932 5.94805 25.3199 5.60494C24.6059 5.20476 23.895 4.80594 23.1837 4.40627C22.9408 4.26981 22.6081 4.08327 22.4445 3.99161C22.281 3.90013 21.9483 3.71341 21.7055 3.57712C21.4626 3.44066 21.1298 3.25394 20.9663 3.16246C20.8027 3.0708 20.4741 2.88664 20.2361 2.75308C19.9981 2.61969 19.7669 2.49004 19.7223 2.46517C19.6777 2.44029 19.5034 2.34251 19.3347 2.24778C19.1662 2.15323 19 2.05988 18.9652 2.04045C18.9305 2.02103 18.7642 1.92784 18.5957 1.83312C18.427 1.73857 18.2567 1.643 18.217 1.62102C18.1775 1.59887 18.1126 1.56242 18.0729 1.5401C18.0332 1.51761 17.9562 1.47502 17.9015 1.44538C17.847 1.41574 17.7308 1.34998 17.6432 1.29904C17.5556 1.2481 17.4805 1.20636 17.4761 1.20636C17.4718 1.20636 17.4379 1.18745 17.401 1.16411C17.364 1.14094 17.2728 1.08966 17.1986 1.05014C17.0606 0.976883 17.0101 0.948263 16.8417 0.84843C16.7892 0.817254 16.7434 0.7917 16.7399 0.7917C16.7365 0.7917 16.6788 0.759671 16.6117 0.720318C16.5445 0.681134 16.4827 0.653195 16.4744 0.658306C16.4662 0.663417 16.4594 0.659158 16.4594 0.648766C16.4594 0.638544 16.433 0.61793 16.4008 0.603109C16.3686 0.588287 16.3137 0.559326 16.2791 0.538712C16.1558 0.465797 16.1437 0.459664 16.1304 0.463412C16.1229 0.465456 16.1168 0.460175 16.1168 0.451316C16.1168 0.442628 16.1026 0.430532 16.0852 0.424569C16.0561 0.414518 16.0207 0.394415 15.8718 0.303442C15.8409 0.284702 15.8106 0.274651 15.8041 0.281295C15.7977 0.287768 15.7924 0.284361 15.7924 0.273969C15.7924 0.243474 15.7617 0.24126 15.5038 0.252844ZM15.2515 9.08902V16.1604L17.7708 17.6144C19.1565 18.4141 21.1298 19.553 22.1561 20.1453C23.1824 20.7377 24.8562 21.7038 25.8758 22.2924C26.8956 22.881 27.7372 23.3625 27.7462 23.3625C27.7562 23.3625 27.7627 20.988 27.7627 17.3856V11.4088L27.6404 11.4772C27.5731 11.5146 27.3136 11.663 27.0637 11.8066L26.6095 12.0681L26.6048 16.6497L26.6 21.2312L24.6349 20.0971C23.5541 19.4734 21.3375 18.1945 19.7092 17.2552L16.7485 15.5474L16.7481 9.76501C16.748 6.58469 16.7515 3.98275 16.7561 3.98275C16.7609 3.98275 16.8723 4.0451 17.004 4.12126C17.6153 4.47493 17.9076 4.64308 18.0897 4.7458C18.6567 5.06557 18.9644 5.64566 18.9954 6.45249C19.0126 6.90463 18.9637 7.29204 18.7775 8.17826C18.4715 9.63451 18.5453 10.01 19.1548 10.0965C19.6935 10.173 19.8046 9.74763 19.6565 8.17417C19.5037 6.54858 19.6473 5.95997 20.1801 6.02744C20.3503 6.04907 20.3017 6.02267 22.4536 7.26733C22.5825 7.34195 22.7691 7.44962 22.8682 7.50686C22.9674 7.56393 23.4473 7.84094 23.9347 8.12238C24.4223 8.40365 24.8296 8.63381 24.84 8.63381C24.8572 8.63381 25.2083 8.43619 25.6323 8.1878C25.7828 8.09972 25.7969 8.08695 25.7676 8.06684C25.7494 8.05441 25.5398 7.93243 25.302 7.79563C24.8362 7.52765 24.5315 7.35217 24.1752 7.14638C24.0512 7.07482 23.7633 6.90855 23.5352 6.77703C23.1176 6.53597 22.9256 6.42523 22.3634 6.10018C22.1949 6.00273 21.9069 5.83663 21.7234 5.73101C21.407 5.54889 20.7007 5.14121 20.209 4.85705C19.9491 4.70679 19.947 4.7056 18.6226 3.94135C18.0724 3.6238 17.5248 3.30761 17.4057 3.23878C16.9952 3.00096 16.2152 2.55154 15.9907 2.42326C15.8667 2.35256 15.6881 2.24932 15.5941 2.19412C15.3496 2.05068 15.2888 2.01763 15.269 2.01763C15.2576 2.01763 15.2515 4.53473 15.2515 9.08902ZM14.278 2.20928C14.1143 2.304 13.8385 2.46329 13.6651 2.56347C13.2796 2.78562 12.8887 3.01135 12.5654 3.19823C12.4315 3.27558 12.2165 3.39977 12.0877 3.47405C11.2737 3.94357 10.9485 4.13131 10.7626 4.23898C10.4984 4.39179 10.0251 4.66471 9.50961 4.96148C9.25185 5.10987 8.93753 5.29113 8.81113 5.36422C8.59613 5.48841 8.4641 5.56456 7.88265 5.90001C7.75624 5.97292 7.54738 6.09354 7.41842 6.16799C7.28945 6.24243 6.99745 6.41109 6.76951 6.54261C6.54139 6.67413 6.25331 6.8404 6.12946 6.91196C5.40167 7.33258 4.79944 7.67961 4.42584 7.8941C4.2473 7.99648 4.09125 8.08933 4.07898 8.10057C4.06177 8.11625 4.09942 8.14572 4.24116 8.22749C4.3427 8.28593 4.55718 8.41012 4.71767 8.50331L5.00967 8.67282L5.20456 8.56072C5.31172 8.49905 5.63864 8.31029 5.93116 8.14129C7.48077 7.24621 7.52183 7.22525 7.94126 7.11946C8.77075 6.91008 9.04759 7.21214 8.95185 8.22255C8.86462 9.14472 8.88932 9.28272 9.13754 9.26023C9.50535 9.22684 9.56515 9.05085 9.40228 8.48116C9.20824 7.80227 9.20926 7.42492 9.40654 6.95353C9.68798 6.2806 10.4412 5.5356 11.3935 4.98789C12.2192 4.51309 12.9954 4.06521 13.0475 4.03352L13.1061 3.99774V9.78426V15.5706L9.50518 17.6492C7.52455 18.7923 5.3095 20.0709 4.58291 20.4905C3.85614 20.9099 3.258 21.2532 3.2534 21.2532C3.2488 21.2532 3.24506 19.1937 3.24506 16.6764V12.0997L2.67997 11.7729C2.36922 11.5932 2.10976 11.4461 2.10312 11.4461C2.09665 11.4461 2.09119 14.1355 2.09119 17.4223C2.09119 20.7092 2.09477 23.3986 2.0992 23.3986C2.10363 23.3986 2.76685 23.0176 3.573 22.5522C4.37916 22.0868 7.1886 20.4651 9.81609 18.9485L14.5936 16.1912L14.598 9.11338C14.6005 5.2206 14.5965 2.03602 14.589 2.03637C14.5815 2.03671 14.4416 2.11439 14.278 2.20928ZM29.6917 8.35118C29.6173 8.39394 29.1875 8.64198 28.7362 8.90264C28.285 9.16329 27.8024 9.44201 27.6636 9.52208C27.5247 9.60215 27.3179 9.72174 27.2039 9.78784C27.0898 9.85411 26.7249 10.0648 26.3927 10.2563C26.0605 10.4477 25.7116 10.6489 25.6175 10.7034C25.5233 10.7577 25.3448 10.8608 25.2207 10.9323C24.8633 11.1388 24.6863 11.241 23.8146 11.7436C23.3635 12.0037 22.0777 12.7458 20.9573 13.3927C19.8368 14.0396 18.61 14.7474 18.2311 14.966C17.8521 15.1844 17.5459 15.3694 17.5505 15.3771C17.5604 15.3931 18.5928 15.9892 18.6105 15.9892C18.617 15.9892 19.0746 15.7343 19.6274 15.4231C20.6966 14.821 20.7579 14.7924 20.9843 14.7922C21.2789 14.7921 21.4273 14.9674 21.4721 15.3681C21.4908 15.5359 21.4864 15.6483 21.4348 16.325C21.4007 16.7723 21.469 16.8853 21.7034 16.7686C21.8602 16.6904 21.8753 16.5597 21.7719 16.1785C21.43 14.9185 21.8609 14.1617 23.418 13.2883C24.2096 12.8441 24.4522 12.8109 24.6679 13.1167C24.8272 13.3426 24.8429 13.4518 24.8604 14.4478C24.8819 15.6708 24.9287 15.8268 25.2734 15.8268C25.7264 15.8268 25.8294 15.5398 25.6816 14.6912C25.5892 14.1617 25.5673 14.0087 25.5456 13.7447C25.4765 12.9014 25.7335 12.2128 26.3116 11.6933C26.4012 11.6128 28.2804 10.5267 28.3304 10.5267C28.3355 10.5267 28.3396 13.5113 28.3396 17.1589V23.7911L27.3617 24.3555C26.8237 24.6657 24.1372 26.2164 21.3917 27.8009C18.6461 29.3856 16.3948 30.6773 16.389 30.6715C16.383 30.6655 16.3762 28.1593 16.3737 25.1022L16.3691 19.5436L15.8202 19.2266C15.5183 19.0523 15.2668 18.9097 15.2614 18.9097C15.2559 18.9097 15.2515 22.0491 15.2515 25.8864C15.2515 30.0289 15.2581 32.863 15.2679 32.863C15.2767 32.863 16.5376 32.1542 18.0696 31.2877C19.8106 30.303 20.898 29.6982 20.9694 29.6751C22.3537 29.2255 22.9699 30.6984 22.9256 34.3503C22.9072 35.859 22.8546 36.7069 22.5438 40.5068C22.1619 45.1768 22.1708 46.7964 22.5832 47.6166C23.0023 48.4498 24.0781 47.8496 24.5078 46.5426C24.9311 45.2555 24.9255 43.6802 24.4815 39.1007C24.339 37.6293 24.2933 37.1293 24.2395 36.4507C23.8698 31.7855 24.2258 29.148 25.4485 27.4961C25.9601 26.805 26.8405 26.1852 27.1101 26.3264C27.6142 26.5905 27.6516 27.9602 27.2666 32.0346C27.1124 33.6663 27.0463 34.4307 26.9971 35.1525C26.722 39.1814 27.2831 40.3189 28.8242 38.8574C29.9679 37.7729 30.1447 36.1824 29.5553 32.2862C29.0164 28.7263 28.9532 27.4934 29.2399 26.1411C29.3682 25.5359 29.6858 24.7018 29.8093 24.6456C29.8495 24.6272 29.8514 24.6172 29.857 24.3867C29.8682 23.935 29.8503 8.27332 29.8386 8.27332C29.8321 8.27349 29.766 8.30842 29.6917 8.35118ZM0 16.4705V24.6524L0.714158 25.056C1.53479 25.5198 1.45557 25.4502 1.66836 25.8937C2.01164 26.6096 2.13515 27.3317 2.13583 28.6267C2.13617 29.4527 2.1297 29.5761 2.01828 30.862C1.88131 32.4414 1.86001 33.0068 1.91998 33.4643C1.99852 34.0629 2.2096 34.3338 2.61369 34.3541C3.14369 34.3808 3.17453 33.7343 2.79581 30.5286C2.45236 27.62 2.4527 26.7251 2.79717 26.397C2.90723 26.292 2.8919 26.2867 3.52445 26.6445C4.16654 27.0075 4.12958 26.9811 4.3398 27.2295C5.25703 28.3132 5.40729 29.2735 4.92295 30.9565C4.66673 31.847 4.72312 32.0997 5.20746 32.2303C5.76505 32.3807 5.86727 32.1567 5.77647 30.9834C5.64784 29.3205 6.04291 28.7359 7.22301 28.8425L7.44499 28.8626L7.89645 29.1178C8.4055 29.4055 8.39817 29.3987 8.52032 29.6984C8.79136 30.3632 8.80721 31.2035 8.58983 33.3859C8.36716 35.6227 8.38641 36.358 8.68387 36.9734C9.00517 37.6381 9.92325 37.8012 10.219 37.2461C10.4577 36.7986 10.4331 36.0733 10.1132 34.107C10.0544 33.7452 9.98577 33.3082 9.96073 33.136C9.71524 31.4477 9.84199 30.7586 10.4081 30.7057C10.6674 30.6816 10.6243 30.6604 12.7015 31.8351C13.7365 32.4203 14.5876 32.8992 14.5929 32.8992C14.5982 32.8992 14.6024 29.759 14.6024 25.9211C14.6024 19.8101 14.5992 18.9438 14.5762 18.9489C14.5617 18.9521 14.3102 19.0927 14.0176 19.2612L13.4854 19.5676L13.4852 25.1427C13.4848 28.2091 13.4806 30.7178 13.4753 30.7178C13.4702 30.7178 12.8111 30.3398 12.0105 29.8778C11.2102 29.4158 8.51708 27.8612 6.02588 26.4234L1.49629 23.8092V17.177C1.49629 13.5293 1.50038 10.5448 1.50532 10.5448C1.51588 10.5448 1.91794 10.7705 5.02841 12.5235C5.61888 12.8561 5.67766 12.8937 5.80611 13.0203C6.27546 13.4827 6.46098 13.9684 6.46166 14.7362C6.46217 15.1488 6.45843 15.1873 6.35246 15.8894C6.20578 16.8604 6.27512 17.1667 6.66763 17.2807C7.18911 17.4323 7.27327 17.1586 7.07565 15.9531C6.94634 15.1645 6.91823 14.8798 6.94174 14.6001C6.98246 14.1174 7.22642 13.9339 7.67089 14.0512C7.81076 14.0881 7.67481 14.0142 9.57282 15.0837C10.48 15.5948 11.2306 16.013 11.2408 16.013C11.294 16.0132 12.3117 15.4035 12.2904 15.3842C12.278 15.3732 11.704 15.0393 11.0149 14.6423C10.3258 14.2455 8.83719 13.3869 7.70684 12.7343C6.57649 12.0818 5.50167 11.4613 5.31819 11.3557C5.13471 11.2499 4.53044 10.9013 3.97506 10.5809C3.41985 10.2606 2.62886 9.80419 2.21743 9.56671C1.39424 9.09174 1.16988 8.96226 0.594904 8.62972C0.381781 8.50655 0.160652 8.37929 0.103751 8.34709L0 8.28865V16.4705ZM9.1401 8.75749C9.1401 8.86516 9.14418 8.99293 9.14929 9.04148L9.15849 9.12956L9.12272 9.0575C9.0849 8.98135 9.07604 8.83722 9.09768 8.6563C9.11693 8.49615 9.1401 8.55135 9.1401 8.75749ZM19.0017 8.98049C18.984 9.27386 18.9834 9.41015 18.999 9.56092C19.0306 9.86706 19.0172 9.90232 18.9366 9.726C18.8485 9.53366 18.8456 9.15529 18.9296 8.79957C19.01 8.45902 19.03 8.5091 19.0017 8.98049ZM25.1383 14.8219C25.1429 14.8442 25.1504 14.972 25.1548 15.1059C25.1615 15.3033 25.1719 15.3764 25.2097 15.4934C25.2661 15.6672 25.2669 15.6793 25.2213 15.6379C25.1395 15.564 25.0778 15.2732 25.077 14.9585C25.0764 14.7978 25.1155 14.711 25.1383 14.8219ZM21.6438 16.4323C21.6559 16.5775 21.6353 16.6706 21.5963 16.6466C21.5774 16.6349 21.5726 16.3338 21.5907 16.2868C21.6118 16.2318 21.6317 16.286 21.6438 16.4323ZM6.57683 16.5183C6.57376 16.6287 6.57751 16.772 6.58552 16.8364C6.59846 16.9424 6.5971 16.9504 6.57274 16.9197C6.49574 16.8231 6.48875 16.2592 6.56524 16.3066C6.57529 16.3127 6.58024 16.4023 6.57683 16.5183ZM12.825 17.7889C11.6957 18.4409 8.91181 20.0476 6.63867 21.3595C4.3657 22.6713 2.50586 23.75 2.50586 23.7565C2.50586 23.7632 4.77934 25.0807 7.55811 26.6849C10.3369 28.2888 12.653 29.626 12.7051 29.6561L12.7996 29.7112V29.1352V28.559L12.4707 28.3709C11.0705 27.5702 4.76554 23.9504 4.75515 23.941C4.71733 23.9073 5.27867 23.4631 5.52007 23.3355C6.03014 23.0664 6.26915 23.2085 6.58023 23.9664C6.83987 24.5993 6.97786 24.7686 7.2334 24.7686C7.53903 24.7686 7.63597 24.5277 7.72439 23.5487C7.82371 22.4483 7.94279 22.095 8.26069 21.9556C8.6268 21.7951 8.83668 22.0103 9.25765 22.9778C9.55459 23.6603 9.64692 23.7466 9.92921 23.6054C10.3302 23.4049 10.4781 23.043 10.5998 21.9653C10.6928 21.1415 10.7498 20.8799 10.9059 20.5592C11.0821 20.1971 11.2712 20.0493 11.9402 19.7496C12.2472 19.6121 12.1497 19.6663 13.6561 18.7962C14.2907 18.4298 14.8266 18.1223 14.8471 18.1128C14.8782 18.0984 15.0733 18.2048 16.0459 18.7666C16.6848 19.1356 17.4671 19.5835 17.7844 19.7617C19.5991 20.7815 20.1295 21.1081 20.3969 21.3704C20.9365 21.8996 21.0869 22.465 20.9774 23.5517C20.9227 24.0954 20.9697 24.2472 21.206 24.2914C21.4454 24.3363 21.4869 24.1187 21.4183 23.1812C21.3518 22.2744 21.5798 22.0486 22.2443 22.3629C22.4357 22.4534 24.9865 23.9192 24.9865 23.9388C24.9865 23.9454 24.6599 24.1381 24.2609 24.3667C23.8618 24.5955 22.3873 25.4416 20.9843 26.2469C19.5812 27.0522 18.0988 27.9028 17.6899 28.1372L16.9464 28.5634L16.9463 29.1365L16.9461 29.7095L16.9866 29.6882C17.0265 29.6674 18.0645 29.0689 21.5793 27.0402C22.5459 26.4823 24.209 25.5228 25.2749 24.9082C26.3409 24.2937 27.2228 23.7816 27.2349 23.7703C27.2566 23.7502 27 23.6013 16.7304 17.6742C15.7336 17.0989 14.9091 16.6226 14.8983 16.6158C14.8874 16.609 13.9545 17.1369 12.825 17.7889ZM21.1646 23.8863C21.1646 24.0027 21.1581 24.0637 21.1465 24.0565C21.1154 24.0373 21.1258 23.7051 21.1574 23.7051C21.1614 23.7051 21.1646 23.7867 21.1646 23.8863ZM8.87586 34.6343C8.8958 34.7152 8.92357 34.9912 8.95934 35.468C9.00074 36.0163 9.02885 36.2442 9.10517 36.6483C9.20074 37.1548 9.16293 37.1945 8.96956 36.7906C8.78898 36.4136 8.75184 36.1751 8.76888 35.5042C8.78762 34.7697 8.82799 34.4411 8.87586 34.6343ZM22.9306 42.0309C23.01 43.0899 22.9844 47.1433 22.8973 47.2988C22.8452 47.392 22.7241 46.4174 22.6772 45.5276C22.6513 45.0375 22.6658 43.8664 22.7036 43.3643C22.7186 43.166 22.7398 42.8415 22.7505 42.6432C22.7738 42.2151 22.8055 41.9892 22.8701 41.7883C22.8912 41.7229 22.9144 41.8161 22.9306 42.0309Z" fill="#9CA3AF"/>
</svg>
