<svg width="190" height="48" viewBox="0 0 190 48" fill="none" xmlns="http://www.w3.org/2000/svg">
<path fill-rule="evenodd" clip-rule="evenodd" d="M54.5418 8.96201L44.9997 18.5041V13.8729V9.24288H28.8429H12.6861L9.19808 12.842C6.10302 16.035 5.71001 17.1422 5.71001 22.6639V28.8877L15.2597 29.1098L24.8084 29.3319L16.0773 29.775C7.50086 30.2105 7.28204 30.2932 3.67314 34.4638L0 38.7096H14.1003H28.2006L31.6887 35.1105C34.7043 32.0002 35.1767 30.7417 35.1767 25.8341V20.1567H25.2906C18.9764 20.1567 15.6473 19.7615 16.0773 19.0648C16.4485 18.4649 20.6279 17.9739 25.3647 17.9739C32.4159 17.9739 34.1784 17.6277 35.0896 16.0633C35.8942 14.6829 36.211 17.557 36.2349 26.4317L36.2687 38.7096H40.6342C44.8658 38.7096 44.9997 38.5964 44.9997 35.0234C44.9997 27.6205 47.1444 28.2563 57.5911 38.751C68.8522 50.0643 69.0101 50.1318 69.0101 43.6216V38.7096H82.6521H96.2952V34.3441V29.9786H81.5612C67.0309 29.9786 66.8273 30.0123 66.8273 32.4226C66.8273 34.5107 65.9161 33.9554 60.5763 28.6156L54.3252 22.3645L60.0308 16.5881C65.4436 11.1078 65.7354 10.5188 65.7354 5.11578C65.7354 -2.24356 65.7517 -2.249 54.5418 8.96201ZM66.8273 13.6084V17.9739H81.5612H96.2952V13.6084V9.24288H81.5612H66.8273V13.6084ZM98.4779 13.6084V17.9739H112.665H126.854V13.6084V9.24288H112.665H98.4779V13.6084ZM129.037 13.6084V17.9739H135.95H142.863L135.131 25.8863C129.342 31.8108 127.312 33.3186 127.051 31.8892C126.739 30.1865 125.17 29.9786 112.59 29.9786H98.4779V34.3441V38.7096H128.491H158.504V34.3942V30.0787L151.373 29.7554L144.242 29.4331L151.919 21.8223L159.595 14.2126V26.4611V38.7096H174.329H189.063V23.9768V9.24288H159.05H129.037V13.6084ZM180.332 23.9768V29.9786H174.329H168.326V23.9768V17.9739H174.329H180.332V23.9768ZM66.8273 24.5222V28.8877H81.5612H96.2952V24.5222V20.1567H81.5612H66.8273V24.5222ZM98.4779 24.5222V28.8877H112.665H126.854V24.5222V20.1567H112.665H98.4779V24.5222Z" fill="#9CA3AF"/>
</svg>
