<svg width="104" height="49" viewBox="0 0 104 49" fill="none" xmlns="http://www.w3.org/2000/svg">
<path fill-rule="evenodd" clip-rule="evenodd" d="M94.742 1.03423C93.603 1.2162 89.915 1.39145 86.5465 1.42355L80.4217 1.48179L80.4201 3.77527C80.4191 5.11486 80.1214 7.03067 79.7041 8.38165C79.3112 9.65394 79.0687 10.774 79.1652 10.8706C79.3485 11.0538 83.6126 7.91596 83.8109 7.45183C84.3237 6.25099 85.6519 5.63931 92.326 3.53039C101.572 0.608923 102.335 -0.179558 94.742 1.03423ZM74.7237 2.02306C74.1542 2.19287 72.3422 2.43387 70.6972 2.55838C67.7778 2.77919 66.8801 3.35359 68.7076 3.83145C69.6967 4.0903 69.5466 4.74677 67.6553 8.4386C65.5803 12.4895 65.3986 12.2832 69.756 10.8214C73.2526 9.64824 73.929 9.18954 72.4939 8.96486C71.3482 8.78521 71.6485 8.35809 74.4649 6.16013C77.0467 4.14518 78.2123 3.50347 77.3053 4.59663C76.6918 5.33567 77.1479 5.63672 78.1735 5.16948C79.1308 4.73331 79.4044 2.84934 78.6237 2.06862C78.1481 1.5931 76.238 1.57084 74.7237 2.02306ZM53.6607 3.41313C53.4083 4.20187 54.1132 8.8186 54.6216 9.70674C55.0254 10.4119 55.0567 10.38 55.1574 9.16133C55.3816 6.45497 56.5954 9.35573 56.6088 12.6298C56.6187 15.0053 56.8227 15.0581 60.8979 13.741C64.2915 12.644 65.3991 12.0088 63.9177 12.0088C61.1145 12.0088 61.3845 4.75738 64.2247 3.76725C66.2208 3.07144 65.1372 2.86254 59.5347 2.86254C54.6224 2.86254 53.8127 2.93839 53.6607 3.41313ZM46.7671 3.57543C45.0586 3.81876 41.3072 4.02947 38.4311 4.04397L33.2014 4.07037L32.8224 5.15731C32.2516 6.79485 32.3489 6.94602 33.4631 6.15262L34.4825 5.42679L35.0139 6.23779C35.9862 7.7213 36.9561 12.4356 37.2046 16.8841L37.4482 21.2417L43.6608 19.291C47.0777 18.218 50.0675 17.2185 50.3046 17.07C51.0475 16.6053 50.7773 16.1505 49.7582 16.1505C49.2203 16.1505 48.6611 16.034 48.5157 15.8916C48.3699 15.7493 47.1403 15.6328 45.7832 15.6328H43.3155L42.9417 13.7346C42.1335 9.6309 42.0911 8.62316 42.7009 8.01329C43.7568 6.95715 48.6327 7.91933 51.1873 9.68759C52.5137 10.6058 52.5846 10.3974 51.9655 7.40006C51.6691 5.96443 51.4265 4.39498 51.4265 3.91247C51.4265 2.90111 51.4788 2.90499 46.7671 3.57543ZM15.5315 5.31159C13.9708 5.62119 11.6289 5.7809 9.63365 5.71438L6.32416 5.60359L5.57813 7.68454C4.57738 10.475 4.61103 11.0321 5.70885 9.84808C9.52985 5.72732 11.7301 16.1759 9.35046 27.1411C8.60573 30.573 8.20968 30.486 14.7425 28.3256C19.9095 26.6171 20.3222 26.3756 18.6486 26.0409C16.3099 25.5732 15.5012 21.2275 16.1657 12.6991L16.3942 9.76524L17.6365 9.45824C22.8069 8.18052 26.7545 12.7571 26.7413 20.0142C26.7364 22.6463 26.8627 24.0889 27.0978 24.0889C27.9841 24.0889 35.3494 21.4115 35.4716 21.045C35.5461 20.8208 35.3183 20.6373 34.965 20.6373C33.5343 20.6373 32.8975 19.7331 32.6539 17.3557C31.7745 8.77226 24.3647 3.56016 15.5315 5.31159ZM92.7633 9.85662L85.6071 11.7621L85.8556 12.6619C86.3107 14.3095 86.1487 32.4016 85.6646 34.0127C85.1624 35.6834 83.9862 36.6321 82.4706 36.5891C81.308 36.556 81.2431 36.8809 82.0745 38.5702C82.6272 39.6931 82.8868 39.8274 86.4585 40.8393C92.712 42.6107 98.5485 45.2223 101.538 47.5865C103.478 49.1204 103.543 49.0254 103.543 44.6453C103.543 40.8743 103.173 39.3325 102.71 41.1758C101.86 44.5658 95.5838 35.2752 93.7324 27.8853C92.2665 22.0338 91.6838 13.2181 92.6957 12.206C94.7686 10.1331 96.9904 14.1728 95.4336 17.1836C94.6576 18.6839 95.3821 18.766 96.9443 17.3544C98.5138 15.9367 99.4014 13.7429 99.4014 11.2822C99.4014 9.94463 99.5604 9.51778 100.264 8.96408C102.212 7.43164 101.593 7.50542 92.7633 9.85662ZM67.1304 16.4655C64.9702 17.1184 63.6591 17.7391 62.8256 18.5032C62.1663 19.1074 61.4673 19.6011 61.2724 19.6003C61.0775 19.5993 61.3837 19.2167 61.9532 18.7497C63.3389 17.6141 62.6244 17.6337 58.3479 18.8483L55.0875 19.7745L54.9806 23.9162C54.81 30.5197 53.7073 33.7528 51.6256 33.7528C50.8979 33.7528 50.9559 34.0917 51.8702 35.1809C52.6162 36.0696 52.7811 36.1007 58.8089 36.4913C62.2046 36.7111 65.1361 36.9228 65.3233 36.9614C65.5105 36.9999 65.7349 36.8376 65.8219 36.6003C65.9088 36.3629 65.7696 36.1687 65.5123 36.1687C64.7023 36.1687 62.4823 34.0909 61.697 32.5978C60.8671 31.0195 60.2955 22.7081 61.0169 22.7081C63.5431 22.7081 69.5613 33.7526 67.3504 34.3309C65.7926 34.738 68.0814 37.5381 69.99 37.5604C70.5054 37.5663 72.6329 37.8666 74.7178 38.2274C79.3345 39.0271 79.1978 39.1793 76.6162 36.1126C75.1143 34.3285 73.7678 32.1181 72.0588 28.6318C70.7244 25.9102 69.1086 22.9968 68.4679 22.1575C66.7157 19.862 67.0108 18.408 69.5463 16.8409C72.0251 15.3089 71.3197 15.1992 67.1304 16.4655ZM42.9065 22.8298C35.1462 24.9273 36.0628 24.3408 35.3804 27.6443C34.5795 31.5212 33.7408 33.1947 31.3511 35.6834C28.7884 38.3522 28.7596 38.3056 32.621 37.7304C34.3269 37.4762 37.5085 37.0952 39.6914 36.8835C43.3714 36.5265 43.7172 36.4299 44.4355 35.5571C45.4759 34.2931 45.4197 33.9788 44.0348 33.3185C42.6111 32.6395 41.9842 30.4687 42.1669 26.8499L42.28 24.6066L43.4019 24.4984C44.4858 24.3938 44.5235 24.4337 44.5235 25.6736V26.957L45.254 26.2995C45.6558 25.9379 46.4197 25.0112 46.9514 24.2403C47.5191 23.4174 48.5004 22.5761 49.3274 22.2034C50.7882 21.5446 51.1819 20.9611 50.1322 21.0113C49.7999 21.0271 46.5483 21.8456 42.9065 22.8298ZM31.7533 25.6757C30.1396 26.1359 28.237 26.6718 27.5251 26.8669C26.3704 27.1835 26.2308 27.3417 26.2308 28.3347C26.2308 32.5799 17.6562 37.0214 17.321 32.9499C17.2024 31.5067 17.9777 29.9562 18.8182 29.9562C19.0985 29.9562 19.3281 29.7066 19.3281 29.4017C19.3281 29.0134 19.1467 28.9179 18.724 29.0833C18.3919 29.2135 15.9094 29.8902 13.2074 30.5873L8.2951 31.8546L7.71603 33.6928C6.96535 36.0763 5.15981 39.0687 3.35842 40.9147C1.6906 42.6239 1.49853 42.6726 0.972529 41.5186C0.235561 39.9007 6.51542e-09 40.6529 6.51542e-09 44.6249C6.51542e-09 49.0883 -0.00207096 49.0858 2.32894 47.4265C6.30267 44.5979 12.852 41.9822 21.0537 39.9476C23.8897 39.244 25.6469 38.6201 26.1819 38.127C27.6471 36.7768 30.0151 33.1846 31.4284 30.1687C32.371 28.1574 33.1972 26.9185 34.0098 26.299C36.2137 24.6177 35.8327 24.5126 31.7533 25.6757Z" fill="#9CA3AF"/>
</svg>
